<?xml version="1.0" encoding="utf-8"?>
<!-- Generator: Adobe Illustrator 19.0.0, SVG Export Plug-In . SVG Version: 6.00 Build 0)  -->
<svg version="1.1" id="layer" xmlns="http://www.w3.org/2000/svg" xmlns:xlink="http://www.w3.org/1999/xlink" x="0px" y="0px"
	 viewBox="-153 -46 652 652" style="enable-background:new -153 -46 652 652;" xml:space="preserve">
<path d="M-56.6,265.2c-0.2,0-0.3,0-0.5,0s-0.3,0-0.5,0h-16.2v29.2h16.2c0.1,0,0.3,0,0.5,0s0.3,0,0.5,0h0.5v-0.1
	c6.5-0.6,11.6-6.9,11.6-14.6c0-7.7-5.1-14-11.6-14.6l0,0L-56.6,265.2L-56.6,265.2z M-92.7,295.7v-49.3c0,0,25.7,0,35,0
	s12.3,2,12.3,2l21.1-20.3c-10.6-7.6-23.6-12.1-37.6-12.1c-35.6,0-64.6,28.9-64.6,64.6c0,14.1,4.5,27.2,12.2,37.8L-92.7,295.7z
	 M-10,242.1l-20.3,20.2c0,0,0.9,2,2.4,5.6c1.4,3.6,2.8,9.3,1.9,15.8c-0.9,6.5-2.7,14.2-9.2,20.8s-12.7,8.7-20.5,8.8
	c-7.8,0.1-25.4,0-25.4,0l-19.3,19.1c10.8,8,24,12.7,38.5,12.7c35.7,0,64.6-28.9,64.6-64.6C2.6,266.1-2.1,252.9-10,242.1z"/>
<path d="M36.6,251.7h37v5.7H43.8v19.7h26.5v5.6H43.8v25.4h-7.2L36.6,251.7L36.6,251.7z M125.8,301.9c-4.2,4.6-10.8,7-19.7,7
	s-15.4-2.4-19.7-7c-4.2-4.6-6.3-12-6.3-22.1c0-10,2.1-17.4,6.3-22.1c4.2-4.6,10.8-7,19.7-7s15.4,2.4,19.7,7c4.2,4.6,6.3,12,6.3,22.1
	C132.1,289.9,130,297.3,125.8,301.9z M122.9,266.5c-1.3-3.4-3.4-5.8-6.1-7.3s-6.3-2.2-10.7-2.2s-7.9,0.7-10.7,2.2s-4.8,3.9-6.1,7.3
	c-1.3,3.4-2,7.8-2,13.5c0,5.6,0.7,10.1,2,13.5c1.3,3.4,3.4,5.8,6.1,7.3c2.8,1.5,6.3,2.2,10.7,2.2s7.9-0.7,10.7-2.2
	c2.8-1.5,4.8-3.9,6.1-7.3c1.3-3.4,2-7.8,2-13.5C125,274.3,124.3,269.8,122.9,266.5z M188.7,301.9c-4.2,4.6-10.8,7-19.7,7
	s-15.4-2.4-19.7-7c-4.2-4.6-6.3-12-6.3-22.1c0-10,2.1-17.4,6.3-22.1c4.2-4.6,10.8-7,19.7-7s15.4,2.4,19.7,7c4.2,4.6,6.3,12,6.3,22.1
	C195,289.9,192.9,297.3,188.7,301.9z M185.9,266.5c-1.3-3.4-3.4-5.8-6.1-7.3c-2.8-1.5-6.3-2.2-10.7-2.2c-4.4,0-7.9,0.7-10.7,2.2
	c-2.8,1.5-4.8,3.9-6.1,7.3c-1.3,3.4-2,7.8-2,13.5c0,5.6,0.7,10.1,2,13.5s3.4,5.8,6.1,7.3c2.8,1.5,6.3,2.2,10.7,2.2
	c4.4,0,7.9-0.7,10.7-2.2c2.8-1.5,4.8-3.9,6.1-7.3c1.3-3.4,2-7.8,2-13.5C187.8,274.3,187.2,269.8,185.9,266.5z M250,301.5
	c-3.7,4.4-9.8,6.7-18,6.7h-22.1v-56.4h22.1c8.2,0,14.2,2.2,18,6.7c3.8,4.4,5.7,11.7,5.7,21.8C255.6,289.9,253.7,297,250,301.5z
	 M246.7,266.4c-1.1-3.3-3-5.6-5.6-6.9c-2.6-1.3-6.1-2-10.4-2H217v45h13.6c4.2,0,7.5-0.6,10.1-1.8c2.6-1.2,4.4-3.4,5.7-6.7
	c1.3-3.2,2-7.8,2-13.7C248.4,274.3,247.8,269.7,246.7,266.4z M274.4,251.7h25.2c9,0,15.8,2.3,20.5,6.8c4.6,4.5,6.9,11.8,6.9,21.7
	c0,9.5-2.3,16.5-6.9,21.1c-4.6,4.5-11.4,6.8-20.5,6.8h-25.2V251.7z M297.5,295.5c2.9,0,5.3-0.4,7.1-1.3c1.8-0.9,3.2-2.4,4.2-4.6
	s1.4-5.3,1.4-9.4c0-4.2-0.4-7.3-1.3-9.7c-0.9-2.3-2.2-3.9-4-4.8c-1.8-0.9-4.2-1.4-7.3-1.4h-6.7v31.2L297.5,295.5L297.5,295.5z
	 M337.5,251.7h16.4v56.3h-16.4V251.7z M362.7,251.7h17.2L393,289l13.1-37.3h17.2l-21.6,56.3h-17.4L362.7,251.7z M430.4,251.7H473
	v12.6h-26.3v9.2h23v12.8h-23v9.2H473v12.6h-42.7V251.7z"/>
<path d="M-57.1,264.6c-0.2,0-0.3,0-0.5,0s-0.3,0-0.5,0h-16.1v29.2h16.2c0.1,0,0.3,0,0.5,0s0.3,0,0.5,0h0.5v-0.1
	c6.5-0.6,11.6-6.9,11.6-14.6c0-7.7-5.1-14-11.6-14.6l0,0L-57.1,264.6L-57.1,264.6z M-93.1,295v-49.3c0,0,25.7,0,35,0s12.3,2,12.3,2
	l21.1-20.3c-10.6-7.6-23.6-12.1-37.6-12.1c-35.7,0-64.6,28.9-64.6,64.6c0,14.1,4.5,27.2,12.2,37.8L-93.1,295z M-10.4,241.5
	l-20.3,20.2c0,0,0.9,2,2.4,5.6c1.4,3.6,2.8,9.3,1.9,15.8s-2.7,14.2-9.2,20.8s-12.7,8.7-20.5,8.8s-25.4,0-25.4,0l-19.3,19.1
	c10.8,8,24,12.7,38.5,12.7c35.7,0,64.6-28.9,64.6-64.6C2.2,265.5-2.5,252.2-10.4,241.5z"/>
</svg>
